<svg width="400" height="400" viewBox="0 0 400 400" fill="none" xmlns="http://www.w3.org/2000/svg">
<rect width="400" height="400" rx="200" fill="#D9D9D9"/>
<g clip-path="url(#clip0_1502_34)">
<path d="M91.288 279.986C84.673 279.986 80.222 285.179 80.222 291.856C80.222 298.533 84.673 303.726 91.288 303.726C97.903 303.726 102.354 298.533 102.354 291.856C102.354 285.179 97.903 279.986 91.288 279.986ZM89.804 272.63C95.121 272.63 99.572 275.35 101.674 278.317V273.372H109.834V310.402H103.59C103.099 310.4 102.628 310.204 102.281 309.857C101.933 309.509 101.738 309.039 101.736 308.548V305.457C99.634 308.424 95.245 311.144 89.866 311.144C79.728 311.144 72 302.489 72 291.918C72 281.346 79.666 272.63 89.804 272.63ZM119.107 273.372H127.267V278.379C129.493 274.669 133.697 272.629 138.519 272.629C147.112 272.629 152.676 278.689 152.676 288.085V310.402H146.432C145.941 310.4 145.47 310.204 145.123 309.857C144.775 309.509 144.58 309.039 144.578 308.548V289.445C144.578 283.572 141.61 280.048 136.85 280.048C131.472 280.048 127.268 284.252 127.268 292.165V310.402H121.024C120.533 310.4 120.062 310.205 119.714 309.857C119.367 309.51 119.171 309.039 119.169 308.548V273.372H119.107ZM178.394 279.986C171.779 279.986 167.328 285.179 167.328 291.856C167.328 298.533 171.778 303.726 178.394 303.726C185.008 303.726 189.46 298.533 189.46 291.856C189.46 285.179 185.008 279.986 178.394 279.986ZM176.91 272.63C182.227 272.63 186.678 275.35 188.78 278.317V254.825H196.94V310.402H190.696C190.205 310.4 189.734 310.205 189.386 309.857C189.039 309.51 188.843 309.039 188.841 308.548V305.457C186.739 308.424 182.351 311.144 176.971 311.144C166.833 311.144 159.106 302.489 159.106 291.918C159.106 281.346 166.771 272.63 176.91 272.63ZM206.213 273.372H214.373V279.986C215.795 275.783 219.937 273.001 224.141 273.001C225.192 273.001 226.243 273.062 227.294 273.31V281.656C225.872 281.223 224.697 280.976 223.214 280.976C218.577 280.976 214.312 284.932 214.312 292.289V310.34H208.068C207.577 310.338 207.106 310.143 206.758 309.795C206.411 309.448 206.215 308.977 206.213 308.486V273.372ZM249.24 303.54C255.731 303.54 260.368 298.409 260.368 291.856C260.368 285.241 255.793 280.172 249.24 280.172C242.625 280.172 238.05 285.302 238.05 291.856C238.113 298.471 242.687 303.54 249.24 303.54ZM249.24 311.144C238.298 311.144 229.829 302.613 229.829 291.918C229.829 281.161 238.298 272.63 249.24 272.63C260.183 272.63 268.652 281.16 268.652 291.918C268.652 302.613 260.244 311.144 249.24 311.144ZM275.267 273.372H283.427V310.402H277.183C276.692 310.4 276.221 310.204 275.874 309.857C275.526 309.509 275.331 309.039 275.329 308.548V273.372H275.267ZM279.347 265.273C276.38 265.273 273.845 262.8 273.845 259.771C273.845 256.804 276.38 254.393 279.347 254.393C282.377 254.393 284.725 256.865 284.725 259.771C284.725 262.801 282.376 265.273 279.347 265.273ZM309.454 279.986C302.839 279.986 298.388 285.179 298.388 291.856C298.388 298.533 302.838 303.726 309.454 303.726C316.069 303.726 320.52 298.533 320.52 291.856C320.458 285.179 316.069 279.986 309.454 279.986ZM307.97 272.63C313.287 272.63 317.738 275.35 319.84 278.317V254.825H328V310.402H321.756C321.265 310.4 320.794 310.205 320.446 309.857C320.099 309.51 319.903 309.039 319.901 308.548V305.457C317.8 308.424 313.411 311.144 308.031 311.144C297.893 311.144 290.166 302.489 290.166 291.918C290.166 281.346 297.831 272.63 307.97 272.63Z" fill="black"/>
<path d="M262.717 130.565L284.045 93.6579C285.282 91.5569 284.54 88.8359 282.438 87.5999C280.336 86.3639 277.616 87.1049 276.38 89.2069L254.804 126.547C238.298 119.005 219.752 114.801 200.031 114.801C180.248 114.801 161.764 119.005 145.258 126.547L123.682 89.2069C122.446 87.1049 119.726 86.3639 117.624 87.5999C115.522 88.8359 114.78 91.5569 116.016 93.6579L137.345 130.565C100.623 150.472 75.647 187.502 72 231.21H327.938C324.291 187.502 299.253 150.472 262.718 130.565H262.717ZM141.054 194.735C135.181 194.735 130.421 189.975 130.421 184.102C130.421 178.229 135.181 173.469 141.054 173.469C146.927 173.469 151.687 178.229 151.687 184.102C151.687 189.975 146.927 194.735 141.054 194.735ZM258.884 194.735C253.011 194.735 248.251 189.975 248.251 184.102C248.251 178.229 253.011 173.469 258.884 173.469C264.757 173.469 269.518 178.229 269.518 184.102C269.518 189.975 264.758 194.735 258.884 194.735Z" fill="#3DDC84"/>
</g>
<defs>
<clipPath id="clip0_1502_34">
<rect width="256" height="225" fill="white" transform="translate(72 87)"/>
</clipPath>
</defs>
</svg>
